# ProBuilder 5.2.2
# https://unity3d.com/unity/features/worldbuilding/probuilder
# 21.02.2024 17:23:41

mtllib ./Empty_03.mtl
o Empty_03

g Cube (24)
v -0.6266165 2.717095 -16.05199
v -1.726617 2.717095 -16.05199
v -0.6266165 3.817096 -16.05199
v -1.726617 3.817096 -16.05199
v -1.726617 2.717096 -17.57699
v -1.726617 3.817096 -17.57699
v -0.6266165 2.717095 -17.57699
v -0.6266165 3.817096 -17.57699

vt 1.1 -4.768372E-07
vt 0 -4.768372E-07
vt 1.1 1.1
vt 0 1.1
vt 1.525 -4.768372E-07
vt 1.525 1.1
vt -1.1 -4.768374E-07
vt -1.1 1.1
vt -1.525 -4.768372E-07
vt -1.525 1.1
vt -1.1 1.525
vt 0 1.525
vt 1.1 1.525

vn 0 0 1
vn -1 0 -1.563401E-07
vn -4.334884E-07 -4.334884E-07 -1
vn 1 0 0
vn 0 1 0
vn -2.167441E-07 -1 0

usemtl Yellow
f 3/3/1 4/4/1 2/2/1 1/1/1
f 4/6/2 6/4/2 5/2/2 2/5/2
f 6/4/3 8/8/3 7/7/3 5/2/3
f 8/4/4 3/10/4 1/9/4 7/2/4
f 8/7/5 6/2/5 4/12/5 3/11/5
f 1/13/6 2/12/6 5/2/6 7/1/6

